<?xml version="1.0" encoding="UTF-8" standalone="no"?>
<!DOCTYPE svg PUBLIC "-//W3C//DTD SVG 1.1//EN" "http://www.w3.org/Graphics/SVG/1.1/DTD/svg11.dtd">
<svg width="100%" height="100%" viewBox="0 0 20 20" version="1.1" xmlns="http://www.w3.org/2000/svg" xmlns:xlink="http://www.w3.org/1999/xlink" xml:space="preserve" xmlns:serif="http://www.serif.com/" style="fill-rule:evenodd;clip-rule:evenodd;stroke-linejoin:round;stroke-miterlimit:1.41421;">
    <g transform="matrix(1.83389,0,0,1.83389,-9.88628,-6.97246)">
        <path d="M13.803,10.939C13.803,11.373 13.721,11.756 13.557,12.088C13.393,12.42 13.172,12.693 12.895,12.908C12.566,13.166 12.215,13.349 11.84,13.456C11.465,13.563 10.98,13.617 10.387,13.617L7.885,13.617L7.885,4.893L10.199,4.893C10.82,4.893 11.286,4.913 11.597,4.954C11.907,4.995 12.205,5.092 12.49,5.244C12.803,5.412 13.031,5.632 13.176,5.903C13.32,6.175 13.393,6.494 13.393,6.861C13.393,7.271 13.284,7.639 13.067,7.963C12.851,8.287 12.551,8.541 12.168,8.725L12.168,8.771C12.688,8.912 13.09,9.169 13.375,9.542C13.66,9.915 13.803,10.381 13.803,10.939ZM12.186,7.025C12.186,6.814 12.15,6.632 12.08,6.478C12.01,6.323 11.896,6.201 11.74,6.111C11.553,6.006 11.344,5.941 11.113,5.918C10.883,5.895 10.564,5.883 10.158,5.883L9.045,5.883L9.045,8.438L10.363,8.438C10.727,8.438 10.994,8.419 11.166,8.382C11.338,8.345 11.516,8.268 11.699,8.15C11.875,8.037 12,7.889 12.074,7.705C12.148,7.521 12.186,7.295 12.186,7.025ZM12.596,10.986C12.596,10.658 12.549,10.388 12.455,10.175C12.361,9.962 12.172,9.781 11.887,9.633C11.703,9.535 11.503,9.473 11.286,9.445C11.069,9.418 10.762,9.404 10.363,9.404L9.045,9.404L9.045,12.627L9.988,12.627C10.496,12.627 10.896,12.604 11.189,12.557C11.482,12.51 11.74,12.41 11.963,12.258C12.182,12.105 12.342,11.933 12.443,11.739C12.545,11.546 12.596,11.295 12.596,10.986Z" style="fill:url(#_Linear1);fill-rule:nonzero;"/>
    </g>
    <defs>
        <linearGradient id="_Linear1" x1="0" y1="0" x2="1" y2="0" gradientUnits="userSpaceOnUse" gradientTransform="matrix(5.77298,-8.38985,8.38985,5.77298,7.52888,13.6172)"><stop offset="0" style="stop-color:white;stop-opacity:1"/><stop offset="0.47" style="stop-color:rgb(234,234,234);stop-opacity:1"/><stop offset="1" style="stop-color:rgb(179,179,179);stop-opacity:1"/></linearGradient>
    </defs>
</svg>
